<svg width="44" height="28" viewBox="0 0 44 28" xmlns="http://www.w3.org/2000/svg" color="#ed1c24">
<path d="M8.28847 0.538464C8.36026 0.394872 8.46794 0.287177 8.61153 0.215383C8.75512 0.0717948 8.89872 0 9.04231 0H19.9192C20.35 0 20.5654 0.251281 20.5654 0.753843C19.5603 5.34872 18.5551 10.1949 17.55 15.2923C16.6167 20.3897 15.9346 24.4462 15.5038 27.4615C15.432 27.6051 15.3244 27.7487 15.1808 27.8923C15.0372 27.9641 14.8936 28 14.75 28H1.28845C1.07306 28 0.893572 27.9282 0.749983 27.7846C0.678188 27.641 0.678188 27.4256 0.749983 27.1385C1.61152 23.6205 2.79616 19.241 4.30385 14C5.81154 8.68718 7.13975 4.2 8.28847 0.538464ZM31.1192 0.538464C31.191 0.394872 31.2987 0.287177 31.4423 0.215383C31.5859 0.0717948 31.7295 0 31.8731 0H42.75C43.1808 0 43.3603 0.251281 43.2885 0.753843C42.3551 4.91795 41.3859 9.62052 40.3808 14.8615C39.4474 20.0308 38.7295 24.2308 38.2269 27.4615C38.1551 27.6051 38.0475 27.7487 37.9039 27.8923C37.7603 27.9641 37.6167 28 37.4731 28H24.1192C23.9038 28 23.7243 27.9282 23.5808 27.7846C23.509 27.641 23.509 27.4256 23.5808 27.1385C24.4423 23.6205 25.6269 19.241 27.1346 14C28.6423 8.68718 29.9705 4.2 31.1192 0.538464Z"/>
</svg>
