<svg width="24" height="24" viewBox="0 0 24 24" xmlns="http://www.w3.org/2000/svg">
<path d="M11.9998 3.03311C7.0294 3.03311 3 7.06251 3 12.0329C3 16.2535 5.90586 19.7951 9.82582 20.7678V14.7833H7.97006V12.0329H9.82582V10.8478C9.82582 7.78466 11.2122 6.36484 14.2195 6.36484C14.7898 6.36484 15.7736 6.4768 16.1761 6.5884V9.08135C15.9637 9.05903 15.5947 9.04787 15.1364 9.04787C13.6608 9.04787 13.0906 9.60694 13.0906 11.0602V12.0329H16.0303L15.5252 14.7833H13.0906V20.9669C17.5469 20.4287 21 16.6344 21 12.0329C20.9996 7.06251 16.9702 3.03311 11.9998 3.03311Z"/>
</svg>
