<svg width="24" height="24" viewBox="0 0 24 24" xmlns="http://www.w3.org/2000/svg">
<path d="M16.1707 19.0244V4.97561C16.6537 4.97561 17.0671 5.14756 17.411 5.49146C17.7549 5.83537 17.9268 6.24878 17.9268 6.73171V17.2683C17.9268 17.7512 17.7549 18.1646 17.411 18.5085C17.0671 18.8524 16.6537 19.0244 16.1707 19.0244ZM4.7561 20.7805C4.27317 20.7805 3.85976 20.6085 3.51585 20.2646C3.17195 19.9207 3 19.5073 3 19.0244V4.97561C3 4.49268 3.17195 4.07927 3.51585 3.73537C3.85976 3.39146 4.27317 3.21951 4.7561 3.21951H12.6585C13.1415 3.21951 13.5549 3.39146 13.8988 3.73537C14.2427 4.07927 14.4146 4.49268 14.4146 4.97561V19.0244C14.4146 19.5073 14.2427 19.9207 13.8988 20.2646C13.5549 20.6085 13.1415 20.7805 12.6585 20.7805H4.7561ZM19.6829 17.2683V6.73171C20.0488 6.73171 20.3598 6.85976 20.6159 7.11585C20.872 7.37195 21 7.68293 21 8.04878V15.9512C21 16.3171 20.872 16.628 20.6159 16.8841C20.3598 17.1402 20.0488 17.2683 19.6829 17.2683ZM4.7561 19.0244H12.6585V4.97561H4.7561V19.0244Z"/>
</svg>
