<svg width="24" height="24" viewBox="0 0 24 24" xmlns="http://www.w3.org/2000/svg">
<path d="M6 19.6875C5.5875 19.6875 5.23438 19.5406 4.94063 19.2469C4.64687 18.9531 4.5 18.6 4.5 18.1875V6.1875C4.5 5.775 4.64687 5.42187 4.94063 5.12812C5.23438 4.83437 5.5875 4.6875 6 4.6875H12.75L11.25 6.1875H6V18.1875H14.25V15.9375H15.75V18.1875C15.75 18.6 15.6031 18.9531 15.3094 19.2469C15.0156 19.5406 14.6625 19.6875 14.25 19.6875H6ZM7.5 16.6875V15.1875H12.75V16.6875H7.5ZM7.5 14.4375V12.9375H11.25V14.4375H7.5ZM14.25 14.4375L11.25 11.4375H9V7.6875H11.25L14.25 4.6875V14.4375ZM15.75 12.15V6.975C16.2 7.2375 16.5625 7.59375 16.8375 8.04375C17.1125 8.49375 17.25 9 17.25 9.5625C17.25 10.125 17.1125 10.6312 16.8375 11.0812C16.5625 11.5312 16.2 11.8875 15.75 12.15ZM15.75 15.375V13.8C16.625 13.4875 17.3438 12.9469 17.9063 12.1781C18.4688 11.4094 18.75 10.5375 18.75 9.5625C18.75 8.5875 18.4688 7.71562 17.9063 6.94687C17.3438 6.17812 16.625 5.6375 15.75 5.325V3.75C17.05 4.0875 18.125 4.79062 18.975 5.85937C19.825 6.92812 20.25 8.1625 20.25 9.5625C20.25 10.9625 19.825 12.1969 18.975 13.2656C18.125 14.3344 17.05 15.0375 15.75 15.375Z"/>
</svg>
