<svg width="24" height="24" viewBox="0 0 24 24" xmlns="http://www.w3.org/2000/svg">
<path d="M9.9 6.74998C6.08775 6.74998 3 9.83773 3 13.65C3 17.4622 6.08775 20.55 9.9 20.55C13.7123 20.55 16.8 17.4622 16.8 13.65C16.8 9.83773 13.7123 6.74998 9.9 6.74998ZM9.9 18.411C7.26075 18.411 5.139 16.272 5.139 13.65C5.139 11.0107 7.278 8.88898 9.9 8.88898C12.522 8.88898 14.661 11.0107 14.661 13.65C14.661 16.2892 12.5393 18.411 9.9 18.411Z" fill="#F8F7F3"/>
<path d="M14.1968 13.3222C14.145 12.615 13.9208 11.9422 13.5585 11.373C12.834 12.27 11.73 12.5805 11.04 12.0802C10.3328 11.5627 10.2983 10.4242 10.9193 9.45823C10.5915 9.38923 10.2465 9.33748 9.9015 9.33748C9.5565 9.33748 9.2115 9.38923 8.88375 9.45823C9.50475 10.4242 9.47025 11.5627 8.763 12.0802C8.05575 12.5977 6.95175 12.27 6.2445 11.373C5.88225 11.9422 5.658 12.615 5.60625 13.3222C6.71025 13.029 7.797 13.4257 8.05575 14.2365C8.33175 15.0645 7.67625 16.0132 6.60675 16.4272C7.05525 16.9447 7.6245 17.376 8.26275 17.6347C8.3145 16.4962 9.02175 15.582 9.9015 15.582C10.7813 15.582 11.4713 16.4962 11.5403 17.6347C12.1785 17.376 12.7478 16.962 13.1963 16.4272C12.1268 16.0132 11.4885 15.0645 11.7473 14.2365C12.0233 13.4257 13.0928 13.029 14.1968 13.3222ZM9.9015 15.03C9.1425 15.03 8.5215 14.409 8.5215 13.65C8.5215 12.891 9.1425 12.27 9.9015 12.27C10.6605 12.27 11.2815 12.891 11.2815 13.65C11.2815 14.409 10.6605 15.03 9.9015 15.03Z" fill="#F8F7F3"/>
<path d="M9.9015 14.4952C10.3683 14.4952 10.7468 14.1168 10.7468 13.65C10.7468 13.1832 10.3683 12.8047 9.9015 12.8047C9.43468 12.8047 9.05625 13.1832 9.05625 13.65C9.05625 14.1168 9.43468 14.4952 9.9015 14.4952Z" fill="#F8F7F3"/>
<path d="M21 7.35C21 9.50391 19.2539 11.25 17.1 11.25C14.946 11.25 13.2 9.50391 13.2 7.35C13.2 5.19609 14.946 3.45 17.1 3.45C19.2539 3.45 21 5.19609 21 7.35Z" fill="#55A725"/>
<path fill-rule="evenodd" clip-rule="evenodd" d="M18.8633 5.99365L17.008 9.39507L15.3633 7.28439L15.8366 6.9156L16.9192 8.30492L18.3366 5.70634L18.8633 5.99365Z" fill="#F8F7F3"/>
</svg>
