<svg width="24" height="24" viewBox="0 0 24 24" xmlns="http://www.w3.org/2000/svg">
<path d="M12 21C10.755 21 9.585 20.7638 8.49 20.2913C7.395 19.8188 6.4425 19.1775 5.6325 18.3675C4.8225 17.5575 4.18125 16.605 3.70875 15.51C3.23625 14.415 3 13.245 3 12H4.8C4.8 13.725 5.34375 15.2475 6.43125 16.5675C7.51875 17.8875 8.91 18.72 10.605 19.065L9.3 17.76L10.56 16.5L14.655 20.595C14.22 20.745 13.7812 20.85 13.3388 20.91C12.8963 20.97 12.45 21 12 21ZM12.45 14.7V9.3H15.15C15.405 9.3 15.6188 9.38625 15.7913 9.55875C15.9638 9.73125 16.05 9.945 16.05 10.2V13.8C16.05 14.055 15.9638 14.2688 15.7913 14.4413C15.6188 14.6138 15.405 14.7 15.15 14.7H12.45ZM7.95 14.7V13.35H10.2V12.45H8.85V11.55H10.2V10.65H7.95V9.3H10.65C10.905 9.3 11.1188 9.38625 11.2913 9.55875C11.4637 9.73125 11.55 9.945 11.55 10.2V13.8C11.55 14.055 11.4637 14.2688 11.2913 14.4413C11.1188 14.6138 10.905 14.7 10.65 14.7H7.95ZM13.8 13.35H14.7V10.65H13.8V13.35ZM19.2 12C19.2 10.275 18.6563 8.7525 17.5688 7.4325C16.4813 6.1125 15.09 5.28 13.395 4.935L14.7 6.24L13.44 7.5L9.345 3.405C9.78 3.255 10.2188 3.15 10.6613 3.09C11.1038 3.03 11.55 3 12 3C13.245 3 14.415 3.23625 15.51 3.70875C16.605 4.18125 17.5575 4.8225 18.3675 5.6325C19.1775 6.4425 19.8188 7.395 20.2913 8.49C20.7638 9.585 21 10.755 21 12H19.2Z"/>
</svg>
