<svg version="1.1" xmlns="http://www.w3.org/2000/svg" width="1024" height="1024" viewBox="0 0 1024 1024">
  <path d="M363.487 52.081h383.477c3.339 0.607 7.102 2.795 6.9 6.679 0.392 5.184-5.115 7.186-8.497 9.77-89.616 61.68-175.99 127.989-260.153 196.898-80.972 66.499-159.862 135.583-235.995 207.598-38.224 36.201-75.762 73.099-112.232 111.070-3.086 3.561-9.484 2.679-11.229-1.771-0.945-3.736 1.015-7.36 1.839-10.927 41.3-144.712 82.611-289.442 123.894-434.166 9.553-31.223 33.633-56.746 62.214-71.762 15.297-8.253 32.491-12.375 49.78-13.389z"></path>
  <path d="M810.853 52.081h26.568c48.533 2.595 98.071 17.543 134.96 50.235 28.544 24.745 47.007 60.307 51.619 97.723v49.902c-3.652 27.947-11.567 55.296-22.71 81.163-16.047 37.252-41.57 70.742-74.859 94.171-25.31 18.113-54.272 30.573-84.084 39.165-18.198 5.369-36.851 8.871-55.435 12.481 0.053 4.681 5.221 4.29 8.56 5.321 42.975 9.871 84.275 31.667 112.629 65.998 17.586 21.020 29.691 46.436 35.545 73.167 7.377 33.48 5.495 68.486-2.151 101.749-11.915 50.51-33.152 99.815-67.577 139.181-30.547 35.371-71.075 61.167-114.631 77.495-60.751 22.959-126.097 30.034-190.595 32.089h-564.893c-0.782-1.653-2.135-3.034-3.799-3.762v-4.465c0.809-1.771 1.85-3.424 3.044-4.935 60.575-75.63 124.718-148.328 190.732-219.224 69.379-74.399 140.872-146.806 214.663-216.835 43.556-41.274 87.857-81.802 133.415-120.866 2.679-2.816 7.752-2.974 10.171 0.259 2.747 3.731 0.296 8.439-0.634 12.375-40.788 142.399-81.543 284.814-122.288 427.239 19.292 0.026 38.595 0 57.896 0.016 14.055-0.163 28.433 1.067 42.082-3.155 32.1-9.453 59.847-34.833 70.113-66.932 68.608-239.683 136.999-479.44 205.665-719.128 1.987-0.132 3.99-0.296 5.992-0.429z"></path>
</svg>
