<svg width="24" height="24" viewBox="0 0 24 24" xmlns="http://www.w3.org/2000/svg">
<path d="M20.55 23.35L17.15 20H4.00002C3.45002 20 2.97919 19.8042 2.58752 19.4125C2.19586 19.0208 2.00002 18.55 2.00002 18V6C2.00002 5.45 2.19586 4.97917 2.58752 4.5875C2.97919 4.19584 3.45002 4 4.00002 4L6.00002 6H4.00002V18H15.15L13.15 16H6.00002V14H11.15L0.650024 3.45L2.05002 2.05L21.95 21.95L20.55 23.35ZM21.75 18.9L20 17.15V6H8.85002L6.85002 4H20C20.55 4 21.0209 4.19584 21.4125 4.5875C21.8042 4.97917 22 5.45 22 6V17.9C22 18.0833 21.9834 18.2583 21.95 18.425C21.9167 18.5917 21.85 18.75 21.75 18.9ZM14.85 12L12.85 10H18V12H14.85ZM6.00002 12V10H8.00002V12H6.00002Z"/>
</svg>
