<svg width="24" height="24" viewBox="0 0 24 24" xmlns="http://www.w3.org/2000/svg">
<path d="M9.3 13.8H18.3L15.195 9.75L13.125 12.45L11.73 10.65L9.3 13.8ZM8.4 17.4C7.905 17.4 7.48125 17.2238 7.12875 16.8713C6.77625 16.5188 6.6 16.095 6.6 15.6V4.8C6.6 4.305 6.77625 3.88125 7.12875 3.52875C7.48125 3.17625 7.905 3 8.4 3H19.2C19.695 3 20.1187 3.17625 20.4713 3.52875C20.8237 3.88125 21 4.305 21 4.8V15.6C21 16.095 20.8237 16.5188 20.4713 16.8713C20.1187 17.2238 19.695 17.4 19.2 17.4H8.4ZM8.4 15.6H19.2V4.8H8.4V15.6ZM4.8 21C4.305 21 3.88125 20.8237 3.52875 20.4713C3.17625 20.1187 3 19.695 3 19.2V6.6H4.8V19.2H17.4V21H4.8Z"/>
</svg>
