<svg width="24" height="24" viewBox="0 0 24 24" xmlns="http://www.w3.org/2000/svg">
<path d="M6.55556 19C6.12778 19 5.76157 18.8477 5.45694 18.5431C5.15231 18.2384 5 17.8722 5 17.4444V6.55556C5 6.12778 5.15231 5.76157 5.45694 5.45694C5.76157 5.15231 6.12778 5 6.55556 5H12V6.55556H6.55556V17.4444H17.4444V12H19V17.4444C19 17.8722 18.8477 18.2384 18.5431 18.5431C18.2384 18.8477 17.8722 19 17.4444 19H6.55556ZM10.2111 14.8778L9.12222 13.7889L16.3556 6.55556H13.5556V5H19V10.4444H17.4444V7.64444L10.2111 14.8778Z"/>
</svg>
