<svg width="24" height="24" viewBox="0 0 24 24" xmlns="http://www.w3.org/2000/svg">
<path d="M16.9091 21C17.3591 21 17.7443 20.8398 18.0648 20.5193C18.3852 20.1989 18.5455 19.8136 18.5455 19.3636V10.3636C18.5455 9.91364 18.3852 9.52841 18.0648 9.20795C17.7443 8.8875 17.3591 8.72727 16.9091 8.72727H14.4546V10.3636H16.9091V19.3636H7.09093V10.3636H9.54547V8.72727H7.09093C6.64093 8.72727 6.2557 8.8875 5.93524 9.20795C5.61479 9.52841 5.45456 9.91364 5.45456 10.3636V19.3636C5.45456 19.8136 5.61479 20.1989 5.93524 20.5193C6.2557 20.8398 6.64093 21 7.09093 21H16.9091ZM12.8182 15.2727V6.12955L14.1273 7.43864L15.2727 6.27273L12 3L8.72729 6.27273L9.87274 7.43864L11.1818 6.12955V15.2727H12.8182Z"/>
</svg>
