<svg width="24" height="24" viewBox="0 0 24 24" xmlns="http://www.w3.org/2000/svg">
<path d="M4.8 19.2C4.305 19.2 3.88125 19.0238 3.52875 18.6713C3.17625 18.3188 3 17.895 3 17.4V6.6C3 6.105 3.17625 5.68125 3.52875 5.32875C3.88125 4.97625 4.305 4.8 4.8 4.8H19.2C19.695 4.8 20.1188 4.97625 20.4713 5.32875C20.8238 5.68125 21 6.105 21 6.6V17.4C21 17.895 20.8238 18.3188 20.4713 18.6713C20.1188 19.0238 19.695 19.2 19.2 19.2H4.8ZM12 12.9L4.8 8.4V17.4H19.2V8.4L12 12.9ZM12 11.1L19.2 6.6H4.8L12 11.1ZM4.8 8.4V6.6V17.4V8.4Z"/>
</svg>
